<?xml version="1.0" standalone="no"?>
<!DOCTYPE svg PUBLIC "-//W3C//DTD SVG 20010904//EN"
 "http://www.w3.org/TR/2001/REC-SVG-20010904/DTD/svg10.dtd">
<svg version="1.0" xmlns="http://www.w3.org/2000/svg"
 width="647.000000pt" height="647.000000pt" viewBox="0 0 647.000000 647.000000"
 preserveAspectRatio="xMidYMid meet">
<metadata>
Created by potrace 1.14, written by Peter Selinger 2001-2017
</metadata>
<g transform="translate(0.000000,647.000000) scale(0.100000,-0.100000)"
fill="#000000" stroke="none">
<path d="M0 3235 l0 -3235 3235 0 3235 0 0 3235 0 3235 -3235 0 -3235 0 0
-3235z m4873 2651 c16 -12 17 -42 17 -368 0 -318 -2 -357 -17 -369 -13 -11
-114 -15 -525 -19 l-508 -5 0 -1794 c0 -986 3 -1797 6 -1802 3 -5 264 -9 610
-9 l604 0 0 1786 0 1786 21 29 20 29 574 0 574 0 20 -29 21 -29 0 -2219 c0
-1992 -2 -2221 -16 -2241 l-15 -22 -3023 0 c-2922 0 -3023 1 -3040 18 -15 17
-16 183 -16 2247 l0 2229 22 23 21 23 573 0 572 0 16 -25 c15 -22 16 -182 16
-1799 0 -976 3 -1781 6 -1790 6 -14 68 -16 605 -16 471 0 601 3 604 12 3 7 6
820 7 1806 l3 1792 -509 0 c-510 0 -510 0 -533 22 l-23 21 0 345 c0 307 2 347
17 364 15 17 79 18 1647 18 1340 -1 1634 -3 1649 -14z"/>
</g>
</svg>
